{
    "asset" : {
        "generator" : "Khronos glTF Blender I/O v1.8.19",
        "version" : "2.0"
    },
    "scene" : 0,
    "scenes" : [
        {
            "name" : "Scene",
            "nodes" : [
                0
            ]
        }
    ],
    "nodes" : [
        {
            "mesh" : 0,
            "name" : "BOTTLE HIGH POLY",
            "rotation" : [
                0.7071068286895752,
                0,
                0,
                0.7071067094802856
            ]
        }
    ],
    "materials" : [
        {
            "doubleSided" : true,
            "name" : "Default",
            "pbrMetallicRoughness" : {
                "baseColorFactor" : [
                    0.800000011920929,
                    0.800000011920929,
                    0.800000011920929,
                    1
                ],
                "metallicFactor" : 0,
                "roughnessFactor" : 0.5
            }
        }
    ],
    "meshes" : [
        {
            "name" : "BOTTLE HIGH POLY",
            "primitives" : [
                {
                    "attributes" : {
                        "POSITION" : 0,
                        "NORMAL" : 1,
                        "TEXCOORD_0" : 2
                    },
                    "indices" : 3,
                    "material" : 0
                }
            ]
        }
    ],
    "accessors" : [
        {
            "bufferView" : 0,
            "componentType" : 5126,
            "count" : 67186,
            "max" : [
                33.46086502075195,
                19.17270851135254,
                103.67990112304688
            ],
            "min" : [
                -23.93252944946289,
                -38.22068786621094,
                -103.68079376220703
            ],
            "type" : "VEC3"
        },
        {
            "bufferView" : 1,
            "componentType" : 5126,
            "count" : 67186,
            "type" : "VEC3"
        },
        {
            "bufferView" : 2,
            "componentType" : 5126,
            "count" : 67186,
            "type" : "VEC2"
        },
        {
            "bufferView" : 3,
            "componentType" : 5125,
            "count" : 94266,
            "type" : "SCALAR"
        }
    ],
    "bufferViews" : [
        {
            "buffer" : 0,
            "byteLength" : 806232,
            "byteOffset" : 0
        },
        {
            "buffer" : 0,
            "byteLength" : 806232,
            "byteOffset" : 806232
        },
        {
            "buffer" : 0,
            "byteLength" : 537488,
            "byteOffset" : 1612464
        },
        {
            "buffer" : 0,
            "byteLength" : 377064,
            "byteOffset" : 2149952
        }
    ],
    "buffers" : [
        {
            "byteLength" : 2527016,
            "uri" : "data:application/octet-stream;base64,"
        }
    ]
}
