{
    "asset" : {
        "generator" : "Khronos glTF Blender I/O v1.8.19",
        "version" : "2.0"
    },
    "scene" : 0,
    "scenes" : [
        {
            "name" : "Scene",
            "nodes" : [
                0,
                1,
                2,
                3,
                4,
                5,
                6,
                7,
                8,
                9,
                10,
                11
            ]
        }
    ],
    "nodes" : [
        {
            "mesh" : 0,
            "name" : "Cylinder.001",
            "rotation" : [
                0.7071068286895752,
                0,
                0,
                0.7071067094802856
            ]
        },
        {
            "mesh" : 1,
            "name" : "Cylinder",
            "rotation" : [
                0.7071068286895752,
                0,
                0,
                0.7071067094802856
            ]
        },
        {
            "mesh" : 2,
            "name" : "Cube.009_Cube.014",
            "rotation" : [
                0.7071068286895752,
                0,
                0,
                0.7071067094802856
            ]
        },
        {
            "mesh" : 3,
            "name" : "Cube.008_Cube.013",
            "rotation" : [
                0.7071068286895752,
                0,
                0,
                0.7071067094802856
            ]
        },
        {
            "mesh" : 4,
            "name" : "Cube.007_Cube.012",
            "rotation" : [
                0.7071068286895752,
                0,
                0,
                0.7071067094802856
            ]
        },
        {
            "mesh" : 5,
            "name" : "Cube.005_Cube.011",
            "rotation" : [
                0.7071068286895752,
                0,
                0,
                0.7071067094802856
            ]
        },
        {
            "mesh" : 6,
            "name" : "Cube.006_Cube.010",
            "rotation" : [
                0.7071068286895752,
                0,
                0,
                0.7071067094802856
            ]
        },
        {
            "mesh" : 7,
            "name" : "Cube.002_Cube.009",
            "rotation" : [
                0.7071068286895752,
                0,
                0,
                0.7071067094802856
            ]
        },
        {
            "mesh" : 8,
            "name" : "Cube.003_Cube.005",
            "rotation" : [
                0.7071068286895752,
                0,
                0,
                0.7071067094802856
            ]
        },
        {
            "mesh" : 9,
            "name" : "Cube.004",
            "rotation" : [
                0.7071068286895752,
                0,
                0,
                0.7071067094802856
            ]
        },
        {
            "mesh" : 10,
            "name" : "Cube.001",
            "rotation" : [
                0.7071068286895752,
                0,
                0,
                0.7071067094802856
            ]
        },
        {
            "mesh" : 11,
            "name" : "Cube.002",
            "rotation" : [
                0.7071068286895752,
                0,
                0,
                0.7071067094802856
            ]
        }
    ],
    "materials" : [
        {
            "doubleSided" : true,
            "name" : "None",
            "pbrMetallicRoughness" : {
                "baseColorFactor" : [
                    0.800000011920929,
                    0.800000011920929,
                    0.800000011920929,
                    1
                ],
                "metallicFactor" : 0,
                "roughnessFactor" : 0.5
            }
        },
        {
            "doubleSided" : true,
            "name" : "Material.001",
            "pbrMetallicRoughness" : {
                "baseColorFactor" : [
                    0.800000011920929,
                    0.800000011920929,
                    0.800000011920929,
                    1
                ],
                "metallicFactor" : 0,
                "roughnessFactor" : 0.5
            }
        }
    ],
    "meshes" : [
        {
            "name" : "Cylinder.001",
            "primitives" : [
                {
                    "attributes" : {
                        "POSITION" : 0,
                        "NORMAL" : 1
                    },
                    "indices" : 2,
                    "material" : 0
                }
            ]
        },
        {
            "name" : "Cylinder",
            "primitives" : [
                {
                    "attributes" : {
                        "POSITION" : 3,
                        "NORMAL" : 4
                    },
                    "indices" : 5,
                    "material" : 0
                }
            ]
        },
        {
            "name" : "Cube.009_Cube.014",
            "primitives" : [
                {
                    "attributes" : {
                        "POSITION" : 6,
                        "NORMAL" : 7
                    },
                    "indices" : 8,
                    "material" : 0
                }
            ]
        },
        {
            "name" : "Cube.008_Cube.013",
            "primitives" : [
                {
                    "attributes" : {
                        "POSITION" : 9,
                        "NORMAL" : 10
                    },
                    "indices" : 8,
                    "material" : 0
                }
            ]
        },
        {
            "name" : "Cube.007_Cube.012",
            "primitives" : [
                {
                    "attributes" : {
                        "POSITION" : 11,
                        "NORMAL" : 12
                    },
                    "indices" : 8,
                    "material" : 0
                }
            ]
        },
        {
            "name" : "Cube.005_Cube.011",
            "primitives" : [
                {
                    "attributes" : {
                        "POSITION" : 13,
                        "NORMAL" : 14
                    },
                    "indices" : 15,
                    "material" : 0
                }
            ]
        },
        {
            "name" : "Cube.006_Cube.010",
            "primitives" : [
                {
                    "attributes" : {
                        "POSITION" : 16,
                        "NORMAL" : 17
                    },
                    "indices" : 15,
                    "material" : 0
                }
            ]
        },
        {
            "name" : "Cube.002_Cube.009",
            "primitives" : [
                {
                    "attributes" : {
                        "POSITION" : 18,
                        "NORMAL" : 19
                    },
                    "indices" : 15,
                    "material" : 0
                }
            ]
        },
        {
            "name" : "Cube.003_Cube.005",
            "primitives" : [
                {
                    "attributes" : {
                        "POSITION" : 20,
                        "NORMAL" : 21
                    },
                    "indices" : 22,
                    "material" : 0
                }
            ]
        },
        {
            "name" : "Cube.004",
            "primitives" : [
                {
                    "attributes" : {
                        "POSITION" : 23,
                        "NORMAL" : 24
                    },
                    "indices" : 25,
                    "material" : 0
                }
            ]
        },
        {
            "name" : "Cube.001",
            "primitives" : [
                {
                    "attributes" : {
                        "POSITION" : 26,
                        "NORMAL" : 27
                    },
                    "indices" : 22,
                    "material" : 0
                }
            ]
        },
        {
            "name" : "Cube.002",
            "primitives" : [
                {
                    "attributes" : {
                        "POSITION" : 28,
                        "NORMAL" : 29
                    },
                    "indices" : 30,
                    "material" : 1
                }
            ]
        }
    ],
    "accessors" : [
        {
            "bufferView" : 0,
            "componentType" : 5126,
            "count" : 384,
            "max" : [
                0.9665889739990234,
                0.3836340010166168,
                0.16642799973487854
            ],
            "min" : [
                0.8981379866600037,
                -0.3898259997367859,
                -0.02065899968147278
            ],
            "type" : "VEC3"
        },
        {
            "bufferView" : 1,
            "componentType" : 5126,
            "count" : 384,
            "type" : "VEC3"
        },
        {
            "bufferView" : 2,
            "componentType" : 5123,
            "count" : 744,
            "type" : "SCALAR"
        },
        {
            "bufferView" : 3,
            "componentType" : 5126,
            "count" : 384,
            "max" : [
                -0.8973090052604675,
                0.3824400007724762,
                0.16642799973487854
            ],
            "min" : [
                -0.9657599925994873,
                -0.3910199999809265,
                -0.02065899968147278
            ],
            "type" : "VEC3"
        },
        {
            "bufferView" : 4,
            "componentType" : 5126,
            "count" : 384,
            "type" : "VEC3"
        },
        {
            "bufferView" : 5,
            "componentType" : 5123,
            "count" : 744,
            "type" : "SCALAR"
        },
        {
            "bufferView" : 6,
            "componentType" : 5126,
            "count" : 96,
            "max" : [
                0.2987630069255829,
                -0.07530099898576736,
                -0.22636400163173676
            ],
            "min" : [
                -0.2921920120716095,
                -0.24081799387931824,
                -0.5854250192642212
            ],
            "type" : "VEC3"
        },
        {
            "bufferView" : 7,
            "componentType" : 5126,
            "count" : 96,
            "type" : "VEC3"
        },
        {
            "bufferView" : 8,
            "componentType" : 5123,
            "count" : 564,
            "type" : "SCALAR"
        },
        {
            "bufferView" : 9,
            "componentType" : 5126,
            "count" : 96,
            "max" : [
                0.8169440031051636,
                -0.07530099898576736,
                -0.22636400163173676
            ],
            "min" : [
                0.29455700516700745,
                -0.24081799387931824,
                -0.5854250192642212
            ],
            "type" : "VEC3"
        },
        {
            "bufferView" : 10,
            "componentType" : 5126,
            "count" : 96,
            "type" : "VEC3"
        },
        {
            "bufferView" : 11,
            "componentType" : 5126,
            "count" : 96,
            "max" : [
                -0.29131799936294556,
                -0.07530099898576736,
                -0.22636400163173676
            ],
            "min" : [
                -0.8137050271034241,
                -0.24081799387931824,
                -0.5854250192642212
            ],
            "type" : "VEC3"
        },
        {
            "bufferView" : 12,
            "componentType" : 5126,
            "count" : 96,
            "type" : "VEC3"
        },
        {
            "bufferView" : 13,
            "componentType" : 5126,
            "count" : 56,
            "max" : [
                0.27740800380706787,
                0.43616101145744324,
                -0.1618269979953766
            ],
            "min" : [
                -0.2763789892196655,
                -0.23175600171089172,
                -0.2456430047750473
            ],
            "type" : "VEC3"
        },
        {
            "bufferView" : 14,
            "componentType" : 5126,
            "count" : 56,
            "type" : "VEC3"
        },
        {
            "bufferView" : 15,
            "componentType" : 5123,
            "count" : 324,
            "type" : "SCALAR"
        },
        {
            "bufferView" : 16,
            "componentType" : 5126,
            "count" : 56,
            "max" : [
                0.8222039937973022,
                0.4368000030517578,
                -0.15988099575042725
            ],
            "min" : [
                0.2835269868373871,
                -0.23111699521541595,
                -0.24369800090789795
            ],
            "type" : "VEC3"
        },
        {
            "bufferView" : 17,
            "componentType" : 5126,
            "count" : 56,
            "type" : "VEC3"
        },
        {
            "bufferView" : 18,
            "componentType" : 5126,
            "count" : 56,
            "max" : [
                -0.2843779921531677,
                0.4368000030517578,
                -0.15988099575042725
            ],
            "min" : [
                -0.8230550289154053,
                -0.23111699521541595,
                -0.24369800090789795
            ],
            "type" : "VEC3"
        },
        {
            "bufferView" : 19,
            "componentType" : 5126,
            "count" : 56,
            "type" : "VEC3"
        },
        {
            "bufferView" : 20,
            "componentType" : 5126,
            "count" : 24,
            "max" : [
                -0.8187170028686523,
                0.42845699191093445,
                -0.047262001782655716
            ],
            "min" : [
                -0.9992589950561523,
                -0.4131790101528168,
                -0.41005900502204895
            ],
            "type" : "VEC3"
        },
        {
            "bufferView" : 21,
            "componentType" : 5126,
            "count" : 24,
            "type" : "VEC3"
        },
        {
            "bufferView" : 22,
            "componentType" : 5123,
            "count" : 132,
            "type" : "SCALAR"
        },
        {
            "bufferView" : 23,
            "componentType" : 5126,
            "count" : 354,
            "max" : [
                0.8264420032501221,
                -0.23216800391674042,
                -0.05917700007557869
            ],
            "min" : [
                -0.8211470246315002,
                -0.4127109944820404,
                -0.478736013174057
            ],
            "type" : "VEC3"
        },
        {
            "bufferView" : 24,
            "componentType" : 5126,
            "count" : 354,
            "type" : "VEC3"
        },
        {
            "bufferView" : 25,
            "componentType" : 5123,
            "count" : 612,
            "type" : "SCALAR"
        },
        {
            "bufferView" : 26,
            "componentType" : 5126,
            "count" : 24,
            "max" : [
                1.0018789768218994,
                0.42845699191093445,
                -0.047262001782655716
            ],
            "min" : [
                0.8213359713554382,
                -0.4131790101528168,
                -0.41005900502204895
            ],
            "type" : "VEC3"
        },
        {
            "bufferView" : 27,
            "componentType" : 5126,
            "count" : 24,
            "type" : "VEC3"
        },
        {
            "bufferView" : 28,
            "componentType" : 5126,
            "count" : 48,
            "max" : [
                1,
                0.42506900429725647,
                -0.0020469999872148037
            ],
            "min" : [
                -1,
                -0.4151040017604828,
                -0.15341399610042572
            ],
            "type" : "VEC3"
        },
        {
            "bufferView" : 29,
            "componentType" : 5126,
            "count" : 48,
            "type" : "VEC3"
        },
        {
            "bufferView" : 30,
            "componentType" : 5123,
            "count" : 168,
            "type" : "SCALAR"
        }
    ],
    "bufferViews" : [
        {
            "buffer" : 0,
            "byteLength" : 4608,
            "byteOffset" : 0
        },
        {
            "buffer" : 0,
            "byteLength" : 4608,
            "byteOffset" : 4608
        },
        {
            "buffer" : 0,
            "byteLength" : 1488,
            "byteOffset" : 9216
        },
        {
            "buffer" : 0,
            "byteLength" : 4608,
            "byteOffset" : 10704
        },
        {
            "buffer" : 0,
            "byteLength" : 4608,
            "byteOffset" : 15312
        },
        {
            "buffer" : 0,
            "byteLength" : 1488,
            "byteOffset" : 19920
        },
        {
            "buffer" : 0,
            "byteLength" : 1152,
            "byteOffset" : 21408
        },
        {
            "buffer" : 0,
            "byteLength" : 1152,
            "byteOffset" : 22560
        },
        {
            "buffer" : 0,
            "byteLength" : 1128,
            "byteOffset" : 23712
        },
        {
            "buffer" : 0,
            "byteLength" : 1152,
            "byteOffset" : 24840
        },
        {
            "buffer" : 0,
            "byteLength" : 1152,
            "byteOffset" : 25992
        },
        {
            "buffer" : 0,
            "byteLength" : 1152,
            "byteOffset" : 27144
        },
        {
            "buffer" : 0,
            "byteLength" : 1152,
            "byteOffset" : 28296
        },
        {
            "buffer" : 0,
            "byteLength" : 672,
            "byteOffset" : 29448
        },
        {
            "buffer" : 0,
            "byteLength" : 672,
            "byteOffset" : 30120
        },
        {
            "buffer" : 0,
            "byteLength" : 648,
            "byteOffset" : 30792
        },
        {
            "buffer" : 0,
            "byteLength" : 672,
            "byteOffset" : 31440
        },
        {
            "buffer" : 0,
            "byteLength" : 672,
            "byteOffset" : 32112
        },
        {
            "buffer" : 0,
            "byteLength" : 672,
            "byteOffset" : 32784
        },
        {
            "buffer" : 0,
            "byteLength" : 672,
            "byteOffset" : 33456
        },
        {
            "buffer" : 0,
            "byteLength" : 288,
            "byteOffset" : 34128
        },
        {
            "buffer" : 0,
            "byteLength" : 288,
            "byteOffset" : 34416
        },
        {
            "buffer" : 0,
            "byteLength" : 264,
            "byteOffset" : 34704
        },
        {
            "buffer" : 0,
            "byteLength" : 4248,
            "byteOffset" : 34968
        },
        {
            "buffer" : 0,
            "byteLength" : 4248,
            "byteOffset" : 39216
        },
        {
            "buffer" : 0,
            "byteLength" : 1224,
            "byteOffset" : 43464
        },
        {
            "buffer" : 0,
            "byteLength" : 288,
            "byteOffset" : 44688
        },
        {
            "buffer" : 0,
            "byteLength" : 288,
            "byteOffset" : 44976
        },
        {
            "buffer" : 0,
            "byteLength" : 576,
            "byteOffset" : 45264
        },
        {
            "buffer" : 0,
            "byteLength" : 576,
            "byteOffset" : 45840
        },
        {
            "buffer" : 0,
            "byteLength" : 336,
            "byteOffset" : 46416
        }
    ],
    "buffers" : [
        {
            "byteLength" : 46752,
            "uri" : "data:application/octet-stream;base64,"
        }
    ]
}
